Coordinates
version=1
nRows=7
nColumns=63
inDegrees=yes

Units are S.I. units (second, meters, Newtons, ...)
If the header above contains a line with 'inDegrees', this indicates whether rotational values are in degrees (yes) or radians (no).

endheader
time	pelvis_tilt	pelvis_list	pelvis_rotation	pelvis_tx	pelvis_ty	pelvis_tz	hip_flexion_r	hip_adduction_r	hip_rotation_r	knee_angle_r	knee_angle_r_beta	ankle_angle_r	subtalar_angle_r	mtp_angle_r	hip_flexion_l	hip_adduction_l	hip_rotation_l	knee_angle_l	knee_angle_l_beta	ankle_angle_l	subtalar_angle_l	mtp_angle_l	L5_S1_Flex_Ext	L5_S1_Lat_Bending	L5_S1_axial_rotation	L4_L5_Flex_Ext	L4_L5_Lat_Bending	L4_L5_axial_rotation	L3_L4_Flex_Ext	L3_L4_Lat_Bending	L3_L4_axial_rotation	L2_L3_Flex_Ext	L2_L3_Lat_Bending	L2_L3_axial_rotation	L1_L2_Flex_Ext	L1_L2_Lat_Bending	L1_L2_axial_rotation	L1_T12_Flex_Ext	L1_T12_Lat_Bending	L1_T12_axial_rotation	Abs_r3	Abs_r2	Abs_r1	Abs_t1	Abs_t2	neck_flexion	neck_bending	neck_rotation	arm_flex_r	arm_add_r	arm_rot_r	elbow_flex_r	pro_sup_r	wrist_flex_r	wrist_dev_r	arm_flex_l	arm_add_l	arm_rot_l	elbow_flex_l	pro_sup_l	wrist_flex_l	wrist_dev_l
      9.53333333	      3.16417717	     -2.71147449	    168.98498020	      2.89957350	      0.89392486	      0.17024733	      1.64462461	      1.50043261	      9.06274145	      8.18186596	      0.14280050	     18.25904201	    -15.76463896	      0.00000000	      2.61987986	     -2.42940789	    -27.19591515	     15.12218798	      0.26393197	     20.92220917	      9.34371456	      0.00000000	     -0.00314343	     -0.18506753	      0.86224774	     -0.00583767	     -0.24613982	      0.91613822	     -0.00516434	     -0.44997320	      0.91613822	     -0.00359263	     -0.44997320	      0.75446677	     -0.00291899	     -0.37738971	      0.70057629	     -0.00179616	     -0.28666961	      0.64668580	     -0.02245322	     -2.09352093	      4.79556325	      0.00000000	      0.00000000	     -0.00000000	      0.00000000	      0.00000000	     -6.64045807	     -2.61851284	    -11.43734612	     30.85301108	     42.22190766	      0.00000000	      5.00000014	     -2.82600390	     -5.01301076	     10.96581615	     27.20401881	     46.06072761	      0.00000000	      5.00000014
      9.56666667	      3.16390183	     -2.73354998	    168.96713993	      2.89958450	      0.89393173	      0.17024673	      1.66656223	      1.48028631	      9.14393826	      8.21475602	      0.14337454	     18.25913159	    -15.84083252	      0.00000000	      2.61073375	     -2.36008164	    -26.94126273	     15.05687059	      0.26279197	     20.84125795	      8.98648968	      0.00000000	     -0.00262603	     -0.18771358	      0.86499129	     -0.00487679	     -0.24965906	      0.91905325	     -0.00431430	     -0.45640680	      0.91905325	     -0.00300128	     -0.45640680	      0.75686738	     -0.00243853	     -0.38278554	      0.70280542	     -0.00150051	     -0.29076834	      0.64874347	     -0.01875744	     -2.12345358	      4.81082207	      0.00000000	      0.00000000	     -0.00000000	      0.00000000	      0.00000000	     -6.64597432	     -2.62129152	    -11.41379807	     30.85768024	     42.44901955	      0.00000000	      5.00000014	     -2.81425206	     -5.03480806	     11.06485352	     27.17871467	     45.99752925	      0.00000000	      5.00000014
      9.60000000	      3.16031028	     -2.71709334	    168.97842078	      2.89954196	      0.89393280	      0.17022602	      1.65526730	      1.49506647	      9.05631808	      8.21636017	      0.14340254	     18.28274344	    -15.74953507	      0.00000000	      2.58484396	     -2.43303015	    -27.35271142	     15.08038200	      0.26320232	     20.94458569	      9.60246003	      0.00000000	     -0.00311466	     -0.18608461	      0.86293618	     -0.00578423	     -0.24749254	      0.91686969	     -0.00511707	     -0.45244613	      0.91686969	     -0.00355974	     -0.45244613	      0.75506915	     -0.00289227	     -0.37946374	      0.70113564	     -0.00177971	     -0.28824507	      0.64720213	     -0.02224767	     -2.10502636	      4.79939213	      0.00000000	      0.00000000	     -0.00000000	      0.00000000	      0.00000000	     -6.63667723	     -2.61506308	    -11.44032935	     30.83449495	     42.38438128	      0.00000000	      5.00000014	     -2.82746689	     -5.03762882	     11.06916811	     27.20606344	     46.00759164	      0.00000000	      5.00000014
      9.63333333	      3.16580995	     -2.70614549	    168.98159111	      2.89957082	      0.89392217	      0.17025631	      1.63237577	      1.49598084	      8.96120631	      8.15160705	      0.14227238	     18.29583089	    -15.60468687	      0.00000000	      2.62244221	     -2.43631125	    -27.20173789	     15.12999287	      0.26406819	     20.93671771	      9.34477398	      0.00000000	     -0.00301715	     -0.18418237	      0.86292706	     -0.00560315	     -0.24496256	      0.91686001	     -0.00495687	     -0.44782102	      0.91686001	     -0.00344830	     -0.44782102	      0.75506118	     -0.00280172	     -0.37558470	      0.70112824	     -0.00172400	     -0.28529850	      0.64719530	     -0.02155119	     -2.08350785	      4.79934145	      0.00000000	      0.00000000	     -0.00000000	      0.00000000	      0.00000000	     -6.63954647	     -2.62644555	    -11.44591764	     30.84961982	     42.36781771	      0.00000000	      5.00000014	     -2.81848178	     -5.02204702	     11.05065727	     27.19270618	     45.99837106	      0.00000000	      5.00000014
      9.66666667	      3.16337228	     -2.73299355	    168.98256698	      2.89956967	      0.89393107	      0.17023030	      1.66176569	      1.47909006	      9.04958253	      8.20811405	      0.14325862	     18.27042926	    -15.74999246	      0.00000000	      2.60551895	     -2.41549552	    -27.31867402	     15.09508786	      0.26345898	     20.88967363	      9.50382840	      0.00000000	     -0.00276169	     -0.18770115	      0.86252638	     -0.00512873	     -0.24964253	      0.91643428	     -0.00453718	     -0.45637658	      0.91643428	     -0.00315633	     -0.45637658	      0.75471059	     -0.00256450	     -0.38276019	      0.70080269	     -0.00157803	     -0.29074908	      0.64689479	     -0.01972647	     -2.12331295	      4.79711299	      0.00000000	      0.00000000	     -0.00000000	      0.00000000	      0.00000000	     -6.64108058	     -2.61855572	    -11.40650686	     30.84585463	     42.31197993	      0.00000000	      5.00000014	     -2.82349432	     -5.05769242	     11.11179070	     27.21158630	     46.00081252	      0.00000000	      5.00000014
      9.70000000	      3.16111485	     -2.72813005	    168.97990046	      2.89955999	      0.89392417	      0.17021981	      1.66112289	      1.48253113	      9.03079385	      8.21707422	      0.14341500	     18.30431453	    -15.70829588	      0.00000000	      2.59319651	     -2.42041302	    -27.34018093	     15.08405715	      0.26326646	     20.93221989	      9.56638215	      0.00000000	     -0.00294855	     -0.18740179	      0.86272116	     -0.00547575	     -0.24924438	      0.91664123	     -0.00484417	     -0.45564871	      0.91664123	     -0.00336990	     -0.45564871	      0.75488101	     -0.00273802	     -0.38214973	      0.70096094	     -0.00168480	     -0.29028537	      0.64704087	     -0.02106119	     -2.11992651	      4.79819626	      0.00000000	      0.00000000	     -0.00000000	      0.00000000	      0.00000000	     -6.63499257	     -2.60991871	    -11.43033667	     30.83457955	     42.19475625	      0.00000000	      5.00000014	     -2.83164253	     -5.04992457	     11.07228451	     27.22933384	     46.02298367	      0.00000000	      5.00000014
      9.73333333	      3.16606087	     -2.73679644	    169.11598613	      2.89947307	      0.89394141	      0.17038235	      1.59019353	      1.44617179	      8.62467978	      8.07122057	      0.14086937	     18.37233654	    -15.31644159	      0.00000000	      2.61548154	     -2.34194479	    -26.77941323	     15.02336742	      0.26220723	     20.84037893	      8.97880872	      0.00000000	     -0.00140482	     -0.18833524	      0.83569409	     -0.00260889	     -0.25048586	      0.88792497	     -0.00230797	     -0.45791829	      0.88792497	     -0.00160557	     -0.45791829	      0.73123233	     -0.00130451	     -0.38405321	      0.67900145	     -0.00080271	     -0.29173128	      0.62677057	     -0.01003447	     -2.13048586	      4.64787983	      0.00000000	      0.00000000	     -0.00000000	      0.00000000	      0.00000000	     -6.65386371	     -2.58558583	    -11.49129134	     30.87042716	     42.24042062	      0.00000000	      5.00000014	     -2.85921975	     -5.03610472	     10.95213764	     27.22330500	     46.00087858	      0.00000000	      5.00000014
